<?xml version="1.0" encoding="UTF-8" standalone="no"?>
<svg
   version="1.1"
   width="1000"
   height="1000"
   viewBox="0 0 1000 1000"
   id="svg236"
   sodipodi:docname="just-logo-green-icon.svg"
   inkscape:version="1.2.2 (732a01da63, 2022-12-09)"
   xml:space="preserve"
   xmlns:inkscape="http://www.inkscape.org/namespaces/inkscape"
   xmlns:sodipodi="http://sodipodi.sourceforge.net/DTD/sodipodi-0.dtd"
   xmlns="http://www.w3.org/2000/svg"
   xmlns:svg="http://www.w3.org/2000/svg"><defs
     id="defs240"><defs
       id="defs225" /><defs
       id="defs6118" /></defs><sodipodi:namedview
     id="namedview238"
     pagecolor="#ffffff"
     bordercolor="#000000"
     borderopacity="0"
     inkscape:showpageshadow="false"
     inkscape:pageopacity="0"
     inkscape:pagecheckerboard="true"
     inkscape:deskcolor="#ffffff"
     showgrid="false"
     inkscape:zoom="0.78374771"
     inkscape:cx="480.38418"
     inkscape:cy="599.68277"
     inkscape:window-width="1920"
     inkscape:window-height="974"
     inkscape:window-x="-11"
     inkscape:window-y="-11"
     inkscape:window-maximized="1"
     inkscape:current-layer="svg236"
     showborder="false"
     borderlayer="false" /><path
     d="m 532.20236,250.01273 c -76.30514,0 -138.21237,63.31615 -138.21237,141.39662 V 754.60403 H 670.42464 V 391.40935 c 0.009,-78.08047 -61.86289,-141.39662 -138.22228,-141.39662 z M 495.94385,618.7832 V 512.63233 h 72.53179 V 618.7832 Z m 72.54165,10.29366 v 94.77232 H 495.94385 V 629.07686 Z M 424.01385,512.63233 h 61.83821 V 618.7832 H 424.01385 Z M 485.87178,396.16761 V 502.31849 H 424.02371 V 396.16761 Z m 46.33058,-51.86187 c 20.02086,0.0318 36.2437,16.63635 36.27328,37.06223 v 4.45555 h -72.53179 v -4.45555 c 0.0398,-20.43089 16.25247,-37.02694 36.25851,-37.06223 z m 36.28314,51.86187 V 502.31849 H 495.94385 V 396.16761 Z m 10.08198,116.46472 h 61.83821 V 618.7832 h -61.83821 z m 0,-10.31384 V 396.16761 h 61.83821 v 106.15088 z m 0,-116.49497 v -4.45555 c -0.0398,-12.05468 -4.56749,-22.91857 -11.82313,-31.28469 l 38.84312,-39.74159 c 20.06029,19.02812 32.99814,45.68065 34.51732,75.48183 z m 19.31054,-82.14244 -38.54716,39.43383 c -7.64037,-5.66659 -16.95778,-9.10287 -27.11864,-9.10287 -10.20525,0 -19.53252,3.47162 -27.18275,9.16844 l -38.53731,-39.46407 c 18.2205,-14.32029 40.95914,-22.96392 65.72006,-22.98414 24.7412,0.018 47.45516,8.6487 65.6658,22.94881 z m -139.10516,6.71611 38.83325,39.75675 c -7.20633,8.35602 -11.73433,19.19968 -11.73433,31.21403 v 4.45555 h -61.55703 c 1.50436,-29.80625 14.43234,-56.40829 34.45811,-75.42633 z m -34.75901,318.67967 h 61.83821 v 94.77232 l -61.83821,0.0182 z m 154.55363,94.77232 v -94.77232 h 61.83821 v 94.75721 z"
     fill="#000000"
     data-fill-palette-color="accent"
     id="path208"
     style="fill:#398378;fill-opacity:1;stroke-width:4.98886" /></svg>
